<?xml version="1.0" standalone="no"?>
<!DOCTYPE svg PUBLIC "-//W3C//DTD SVG 20010904//EN"
 "http://www.w3.org/TR/2001/REC-SVG-20010904/DTD/svg10.dtd">
<svg version="1.0" xmlns="http://www.w3.org/2000/svg"
 width="300.000000pt" height="144.000000pt" viewBox="0 0 300.000000 144.000000"
 preserveAspectRatio="xMidYMid meet">
<metadata>
Created by potrace 1.10, written by Peter Selinger 2001-2011
</metadata>
<g transform="translate(0.000000,144.000000) scale(0.100000,-0.100000)"
fill="#000000" stroke="none">
<path d="M560 1384 c-194 -30 -334 -94 -375 -175 -22 -42 -22 -986 -1 -1028
34 -65 130 -123 256 -156 85 -22 122 -16 55 9 -150 56 -183 71 -219 95 -79 53
-77 35 -74 578 l3 482 30 31 c53 56 105 81 235 116 66 18 351 27 425 14 124
-22 193 -45 257 -85 92 -58 88 -32 88 -573 0 -309 -4 -480 -11 -499 -22 -59
-84 -100 -211 -142 -72 -24 -95 -41 -55 -41 29 0 138 35 187 60 20 10 55 39
78 64 l42 46 0 177 c1 721 -1 825 -15 853 -37 71 -173 140 -326 165 -84 13
-302 19 -369 9z"/>
<path d="M555 1325 c-44 -7 -87 -15 -95 -17 -8 -3 -28 -8 -45 -13 -52 -14
-109 -46 -147 -83 -49 -47 -51 -86 -7 -136 151 -173 746 -177 917 -6 95 95
-21 208 -256 250 -96 17 -277 19 -367 5z m375 -40 c136 -27 260 -96 260 -144
0 -26 -59 -77 -122 -106 -86 -39 -195 -57 -353 -57 -157 0 -251 15 -345 58
-55 24 -120 81 -120 104 0 17 53 71 89 89 141 73 393 96 591 56z"/>
<path d="M1558 1010 c-76 -40 -113 -126 -96 -219 16 -89 86 -151 169 -151 55
0 64 -6 84 -53 13 -32 13 -41 1 -71 -18 -43 -51 -66 -97 -66 -47 0 -85 30
-100 80 -11 35 -15 38 -51 42 -22 2 -42 0 -44 -4 -3 -5 2 -32 10 -61 33 -115
154 -177 259 -134 39 17 104 87 113 123 12 49 -3 133 -31 170 -35 45 -59 58
-129 64 -50 4 -62 9 -80 33 -24 32 -27 92 -7 130 18 34 74 60 110 52 32 -7 77
-51 83 -80 2 -16 12 -21 46 -23 39 -3 42 -2 42 23 0 28 -23 79 -49 109 -49 55
-162 73 -233 36z m172 -31 c36 -20 70 -64 70 -90 0 -8 -18 5 -41 28 -40 42
-92 65 -129 58 -111 -21 -154 -157 -75 -241 28 -29 39 -34 80 -34 92 0 140
-54 139 -158 0 -57 -3 -66 -33 -96 -32 -33 -99 -60 -131 -53 -83 20 -113 41
-136 94 -17 40 -17 43 1 43 8 0 15 -6 15 -13 0 -8 15 -31 34 -53 32 -37 36
-39 95 -39 57 0 64 2 95 35 18 19 35 48 38 64 12 62 -36 145 -85 147 -92 2
-129 21 -160 80 -24 45 -19 138 10 177 53 72 139 92 213 51z"/>
<path d="M2090 1008 c-111 -39 -179 -109 -216 -220 -21 -65 -15 -175 14 -240
51 -115 168 -195 299 -205 l74 -6 -6 29 c-15 64 -15 64 -54 64 -93 0 -191 62
-231 147 -28 57 -31 150 -8 204 52 122 189 185 321 148 60 -16 141 -101 161
-168 20 -68 20 -84 0 -150 -13 -46 -74 -131 -93 -131 -3 0 -19 20 -34 45 l-29
45 -34 -26 c-19 -15 -34 -29 -34 -31 0 -5 171 -238 174 -238 1 0 17 12 36 27
l34 27 -30 38 -31 38 42 42 c164 163 118 441 -88 543 -88 43 -178 49 -267 18z
m222 -30 c18 -6 35 -14 38 -17 3 -4 22 -17 43 -31 71 -48 117 -144 117 -248 0
-76 -31 -152 -95 -230 -34 -43 -34 -43 -18 -77 31 -65 -6 -55 -54 15 -13 19
-35 50 -48 69 -32 43 -22 59 17 26 16 -14 36 -25 43 -25 25 0 83 59 107 108
32 66 32 179 0 239 -49 94 -136 152 -238 161 -109 8 -198 -35 -259 -125 -53
-80 -63 -142 -36 -233 33 -106 119 -188 216 -204 63 -11 79 -17 66 -26 -18
-11 -101 5 -153 30 -124 58 -197 225 -157 359 29 97 124 191 219 218 48 14
138 9 192 -9z"/>
<path d="M241 994 c-27 -35 -30 -147 -4 -184 45 -67 112 -104 255 -141 68 -18
113 -22 243 -22 143 0 170 2 259 26 107 29 168 64 202 115 20 28 22 44 20 118
-4 117 -15 124 -134 75 -112 -46 -171 -55 -362 -56 -202 0 -301 19 -415 79
-39 21 -40 21 -64 -10z m39 -9 c24 -22 146 -65 228 -81 88 -17 305 -18 405 -3
82 13 230 63 248 85 23 28 29 12 29 -78 l0 -91 -38 -36 c-137 -131 -607 -142
-819 -21 -68 39 -83 69 -83 165 0 41 3 75 7 75 3 0 14 -7 23 -15z"/>
<path d="M2598 753 c4 -298 7 -315 77 -368 34 -27 50 -30 173 -39 l62 -4 0 48
0 48 -63 -5 c-80 -7 -128 13 -152 63 -14 31 -16 68 -13 280 l3 244 -45 0 -45
0 3 -267z m87 -294 c37 -39 82 -59 134 -59 22 0 43 -4 46 -10 4 -6 -17 -10
-55 -10 -80 0 -133 26 -160 80 -18 36 -20 58 -20 273 0 128 3 237 8 241 4 4 9
-103 12 -237 l5 -246 30 -32z"/>
<path d="M235 697 c-11 -17 -14 -45 -12 -98 2 -63 6 -79 30 -110 67 -89 244
-141 477 -142 161 0 268 18 360 59 104 47 129 89 125 202 -3 93 -16 110 -71
92 -22 -7 -43 -16 -49 -20 -5 -4 -48 -19 -95 -31 -75 -21 -106 -24 -265 -24
-194 0 -280 15 -403 71 -65 30 -78 30 -97 1z m167 -62 c112 -37 219 -48 393
-42 162 6 261 26 344 73 24 13 45 24 47 24 2 0 4 -38 4 -84 0 -75 -3 -88 -25
-114 -71 -85 -324 -137 -544 -112 -177 19 -338 84 -361 146 -6 14 -10 61 -10
105 l0 79 38 -24 c20 -14 72 -36 114 -51z"/>
<path d="M234 396 c-12 -19 -15 -43 -12 -100 6 -114 45 -154 196 -205 62 -21
77 -24 189 -39 69 -9 184 -8 283 3 128 14 240 57 294 113 26 28 28 38 31 111
3 128 -19 147 -117 102 -95 -43 -182 -56 -368 -55 -149 0 -188 3 -258 22 -46
13 -91 27 -100 31 -43 21 -94 41 -107 41 -8 0 -22 -11 -31 -24z m136 -51 c119
-42 181 -50 375 -49 208 1 299 17 393 69 24 14 46 25 48 25 2 0 4 -38 4 -84 0
-96 -14 -122 -83 -158 -214 -109 -601 -98 -791 22 -57 36 -66 59 -66 161 l0
79 38 -24 c20 -14 57 -32 82 -41z"/>
</g>
</svg>
