<?xml version="1.0" encoding="utf-8"?>
<!-- Generator: Adobe Illustrator 23.0.3, SVG Export Plug-In . SVG Version: 6.00 Build 0)  -->
<svg version="1.1" xmlns="http://www.w3.org/2000/svg" xmlns:xlink="http://www.w3.org/1999/xlink" x="0px" y="0px"
	 viewBox="0 0 256 256" style="enable-background:new 0 0 256 256;" xml:space="preserve">
<style type="text/css">
	.st0{fill:#878787;}
	.st1{fill:#F2E1D6;}
	.st2{fill:#FFFFFF;}
	.st3{fill:#F0C020;}
	.st4{fill:#F9E5AF;}
	.st5{fill:#72C1E8;}
	.st6{fill:#C5E5FF;}
	.st7{fill:#13BF6D;}
	.st8{fill:#76FFBA;}
	.st9{fill:#EFEFEF;}
	.st10{fill:#FC5D3D;}
	.st11{fill:#FFCBC2;}
	.st12{fill:#FFB69F;}
	.st13{fill:#AFAFAF;}
	.st14{fill:#7C7B7A;}
	.st15{fill:#D6C0B4;}
	.st16{fill:#7A7380;}
	.st17{fill:#F0AB20;}
	.st18{fill:#FBE0E2;}
	.st19{fill:#4C4945;}
	.st20{fill:#68B0D4;}
	.st21{fill:#B35034;}
	.st22{fill:#EDAF85;}
	.st23{fill:#139C6D;}
</style>
<g id="Layer_2">
</g>
<g id="Layer_1">
	<g>
		<g>
			<g>
				<g>
					<path class="st13" d="M238.26,55.84h-57.74c0.31,4.78-0.03,9.68-1.12,14.61h54.69v116.03H21.91V70.45H76.6
						c-1.04-4.7-1.41-9.62-1.09-14.61H17.74c-5.76,0-10.44,4.67-10.44,10.44v124.38c0,5.77,4.68,10.43,10.44,10.43h220.52
						c5.76,0,10.44-4.66,10.44-10.43V66.28C248.7,60.51,244.02,55.84,238.26,55.84z"/>
				</g>
				<g>
					<path class="st3" d="M234.09,70.45v116.03H21.91V70.45H76.6c4.3,19.89,19.87,35.58,39.68,40.1L128,130.84l11.72-20.29
						c19.81-4.52,35.38-20.21,39.68-40.1H234.09z"/>
				</g>
				<g>
					<polygon class="st0" points="147.815,230.551 108.185,230.551 110.264,201.094 145.736,201.094 					"/>
				</g>
				<g>
					<path class="st13" d="M164.406,230.551c-7.815,0-64.644,0-72.812,0c-10.361,0-18.782,8.385-18.782,18.782h110.377
						C183.188,238.961,174.778,230.551,164.406,230.551z"/>
				</g>
				<g>
					<g>
						<path class="st4" d="M59.045,177.509h-8.568c-1.381,0-2.5-1.119-2.5-2.5s1.119-2.5,2.5-2.5h8.568c1.381,0,2.5,1.119,2.5,2.5
							S60.426,177.509,59.045,177.509z M40.477,177.509h-8.126c-1.381,0-2.5-1.119-2.5-2.5V81.135c0-1.381,1.119-2.5,2.5-2.5
							s2.5,1.119,2.5,2.5v91.375h5.626c1.381,0,2.5,1.119,2.5,2.5S41.857,177.509,40.477,177.509z"/>
					</g>
					<g>
						<path class="st4" d="M223.65,177.509h-8.125c-1.381,0-2.5-1.119-2.5-2.5s1.119-2.5,2.5-2.5h5.625V81.135
							c0-1.381,1.119-2.5,2.5-2.5s2.5,1.119,2.5,2.5v93.875C226.15,176.39,225.031,177.509,223.65,177.509z M205.525,177.509h-8.57
							c-1.381,0-2.5-1.119-2.5-2.5s1.119-2.5,2.5-2.5h8.57c1.381,0,2.5,1.119,2.5,2.5S206.906,177.509,205.525,177.509z"/>
					</g>
				</g>
			</g>
			<g>
				<path class="st5" d="M180.52,55.84C178.8,29.22,156.64,6.67,128,6.67c-27.9,0-50.72,21.72-52.49,49.17
					c-0.32,4.99,0.05,9.91,1.09,14.61c4.3,19.89,19.87,35.58,39.68,40.1L128,130.84l11.72-20.29c19.81-4.52,35.38-20.21,39.68-40.1
					C180.49,65.52,180.83,60.62,180.52,55.84z"/>
				<g>
					<g>
						<path class="st6" d="M162.583,83.261c-1.192-0.696-1.595-2.227-0.898-3.419c0.959-1.642,1.804-3.369,2.511-5.132
							c0.513-1.282,1.971-1.904,3.25-1.391c1.282,0.514,1.904,1.969,1.391,3.25c-0.798,1.991-1.751,3.94-2.833,5.794
							C165.308,83.553,163.778,83.959,162.583,83.261z"/>
					</g>
					<g>
						<path class="st6" d="M169.478,62.718c-1.381,0-2.5-1.119-2.5-2.5c0-21.492-17.485-38.978-38.978-38.978
							c-1.381,0-2.5-1.119-2.5-2.5s1.119-2.5,2.5-2.5c24.249,0,43.978,19.728,43.978,43.978
							C171.978,61.599,170.858,62.718,169.478,62.718z"/>
					</g>
				</g>
			</g>
		</g>
		<circle cx="150.479" cy="249.33" r="2.5"/>
		<path d="M125.5,75.399c0,8.323,8.938,13.656,16.191,9.623c9.527-5.299,15.198-15.765,14.447-26.663
			c-0.998-14.45-13.09-26.197-28.14-26.213c-15.844-0.016-28.206,12.923-28.206,28.208c0,7.535,2.934,14.619,8.262,19.946
			c0.977,0.977,2.559,0.977,3.535,0c0.977-0.976,0.977-2.559,0-3.535c-4.383-4.383-6.797-10.211-6.797-16.411
			c0-12.86,10.394-23.205,23.206-23.207c12.373-0.002,22.331,9.669,23.151,21.555c0.628,9.111-3.928,17.521-11.889,21.949
			c-3.913,2.176-8.762-0.734-8.762-5.252V63.946c0-1.381-1.119-2.5-2.5-2.5s-2.5,1.119-2.5,2.5V75.399z"/>
		<path d="M128,56.611c1.381,0,2.5-1.119,2.5-2.5v-1.347c0-1.381-1.119-2.5-2.5-2.5s-2.5,1.119-2.5,2.5v1.347
			C125.5,55.492,126.619,56.611,128,56.611z"/>
		<path d="M98.712,150.078h58.576c1.381,0,2.5-1.119,2.5-2.5s-1.119-2.5-2.5-2.5H98.712c-1.381,0-2.5,1.119-2.5,2.5
			S97.331,150.078,98.712,150.078z"/>
		<path d="M180.604,163.494H75.396c-1.381,0-2.5,1.119-2.5,2.5s1.119,2.5,2.5,2.5h105.209c1.381,0,2.5-1.119,2.5-2.5
			S181.985,163.494,180.604,163.494z"/>
		<path d="M17.738,203.593h89.842l-1.726,24.457H91.59c-11.76,0-21.28,9.508-21.28,21.28c0,1.371,1.105,2.5,2.5,2.5h67.67
			c1.38,0,2.5-1.12,2.5-2.5c0-1.38-1.12-2.5-2.5-2.5H75.51c1.23-7.97,7.99-13.76,16.08-13.78c7.765,0,64.996,0,72.82,0
			c8.09,0.02,14.84,5.81,16.08,13.78h-20.011c-1.38,0-2.5,1.12-2.5,2.5c0,1.38,1.12,2.5,2.5,2.5h22.71c1.359,0,2.5-1.089,2.5-2.5
			c0-11.73-9.55-21.28-21.279-21.28h-14.265l-1.726-24.457h89.843c7.132,0,12.935-5.802,12.935-12.935V66.279
			c0-7.132-5.803-12.935-12.935-12.935h-55.489C179.799,25.576,156.341,4.17,128,4.17c-10.88,0-21.4,3.16-30.42,9.15
			c-1.177,0.777-1.452,2.332-0.7,3.47c0.729,1.11,2.35,1.44,3.46,0.7c8.21-5.44,17.77-8.32,27.67-8.32
			c27.285,0,50.09,22.138,50.09,50.15c0,23.328-16.26,43.625-38.939,48.79c-0.67,0.16-1.261,0.59-1.61,1.19L128,125.84l-9.55-16.54
			c-0.351-0.6-0.94-1.03-1.61-1.19c-22.605-5.148-38.94-25.383-38.94-48.79c0-10.268,3.102-20.2,8.91-28.58
			c0.79-1.13,0.51-2.7-0.63-3.48c-1.09-0.77-2.72-0.46-3.479,0.63c-5.245,7.567-8.495,16.324-9.474,25.455H17.738
			c-7.132,0-12.935,5.802-12.935,12.935v124.379C4.804,197.791,10.606,203.593,17.738,203.593z M145.132,228.05h-34.265
			l1.726-24.457h30.812L145.132,228.05z M9.804,66.279c0-4.375,3.56-7.935,7.935-7.935h55.177c-0.057,3.182,0.139,6.298,0.669,9.605
			H21.91c-1.393,0-2.5,1.148-2.5,2.5v116.03c0,1.342,1.087,2.5,2.5,2.5h212.18c1.35,0,2.5-1.093,2.5-2.5v-40.71
			c0-1.38-1.12-2.5-2.5-2.5c-1.37,0-2.49,1.11-2.5,2.48c0,0.01,0,0.01,0,0.02v38.22H24.41V72.95h50.213
			c4.982,19.537,20.401,34.877,40.037,39.79l11.17,19.35c0.978,1.673,3.384,1.654,4.33,0l11.18-19.35
			c19.522-4.885,35.02-20.136,40.034-39.79h50.216v52.81c0,1.38,1.12,2.51,2.5,2.51s2.5-1.13,2.5-2.51V70.45
			c0-0.67-0.26-1.29-0.74-1.76c-0.47-0.48-1.09-0.74-1.76-0.74h-51.679c0.522-3.263,0.732-6.381,0.673-9.605h55.178
			c4.375,0,7.935,3.56,7.935,7.935v124.379c0,4.375-3.56,7.935-7.935,7.935H17.738c-4.375,0-7.935-3.56-7.935-7.935V66.279z"/>
		<path d="M234.09,133.27c-1.38,0-2.5,1.12-2.5,2.49c0,1.38,1.12,2.5,2.5,2.5s2.5-1.12,2.5-2.5
			C236.59,134.39,235.47,133.27,234.09,133.27z"/>
		<path d="M92.95,23.47c0.979-0.97,1-2.55,0.04-3.53c-0.94-0.95-2.58-0.98-3.53-0.05l-0.01,0.01c-0.98,0.96-1,2.55-0.04,3.53
			C90.369,24.41,91.937,24.459,92.95,23.47z"/>
	</g>
</g>
</svg>
