<?xml version="1.0" encoding="utf-8"?>
<!-- Generator: Adobe Illustrator 24.0.0, SVG Export Plug-In . SVG Version: 6.00 Build 0)  -->
<svg version="1.1" xmlns="http://www.w3.org/2000/svg" xmlns:xlink="http://www.w3.org/1999/xlink" x="0px" y="0px"
	 viewBox="0 0 256 256" enable-background="new 0 0 256 256" xml:space="preserve">
<g id="Layer_2" display="none">
	<rect x="-428" y="-2472" display="inline" fill="#FFFFFF" width="1786" height="5896"/>
</g>
<g id="Layer_1">
	<g>
		<path fill="#72C2E9" d="M214.75,129.336v83.417c0,2.76-2.24,5-5,5H46.25c-2.76,0-5-2.24-5-5v-83.417c0-2.76,2.24-5,5-5h37.13
			c1.85,13.77,9.6,22.73,15.94,28.05c4.51,3.78,7.18,9.31,7.18,15.2v3.87h43v-4.04c0-5.79,2.65-11.22,7.08-14.93
			c6.33-5.3,14.12-14.27,16.02-28.15h37.15C212.51,124.336,214.75,126.576,214.75,129.336z"/>
		<path fill="#4AA4C7" d="M178.64,124.336c-0.732,10.234-6.816,23.208-18.21,32.75c-3.09,2.59-4.88,6.29-4.93,10.17v22.61
			c0,6.39-5.21,11.6-11.61,11.6h-31.78c-6.4,0-11.61-5.21-11.61-11.6v-22.58c-0.09-3.95-1.92-7.69-5.03-10.3
			c-10.735-9.001-16.808-20.647-18.14-32.65h6.05c1.85,13.77,9.6,22.73,15.94,28.05c4.51,3.78,7.18,9.31,7.18,15.2v3.87h43v-4.04
			c0-5.79,2.65-11.22,7.08-14.93c6.33-5.3,14.12-14.27,16.02-28.15H178.64z"/>
		<path fill="#C5E5FE" d="M204.75,210.253H68.167c-1.381,0-2.5-1.119-2.5-2.5s1.119-2.5,2.5-2.5H202.25v-70.917
			c0-1.381,1.119-2.5,2.5-2.5s2.5,1.119,2.5,2.5v73.417C207.25,209.134,206.131,210.253,204.75,210.253z M58.167,210.253H51.25
			c-1.381,0-2.5-1.119-2.5-2.5s1.119-2.5,2.5-2.5h6.917c1.381,0,2.5,1.119,2.5,2.5S59.547,210.253,58.167,210.253z"/>
		<path fill="#FC5D3D" d="M215.69,87.136h-15.51c-1.85-11.12-6.23-21.4-12.51-30.21l10.96-10.97c1.49-1.49,1.49-3.9,0-5.39
			l-11.86-11.86c-1.49-1.49-3.9-1.49-5.39,0l-10.97,10.96c-8.81-6.28-19.09-10.66-30.21-12.51v-15.51c0-2.1-1.71-3.81-3.81-3.81
			h-16.78c-2.1,0-3.81,1.71-3.81,3.81v15.51c-11.12,1.85-21.4,6.23-30.21,12.51l-10.97-10.96c-1.49-1.49-3.9-1.49-5.39,0
			l-11.86,11.86c-1.49,1.49-1.49,3.9,0,5.39l10.96,10.97c-6.28,8.81-10.66,19.09-12.51,30.21H40.31c-2.1,0-3.81,1.71-3.81,3.81
			v16.78c0,2.1,1.71,3.81,3.81,3.81h15.51c0.38,2.3,0.87,4.57,1.47,6.8c0.54,2.04,1.17,4.04,1.89,6h19.93
			c-0.99-1.94-1.87-3.94-2.63-6c-2.19-5.92-3.38-12.32-3.38-19c0-30.38,24.63-54.9,54.9-54.9c30.51,0,54.9,24.75,54.9,54.9
			c0,6.65-1.18,13.04-3.39,19c-0.75,2.05-1.63,4.06-2.62,6h19.93c1.437-3.911,2.615-8.291,3.36-12.8h15.51
			c2.1,0,3.81-1.71,3.81-3.81v-16.78C219.5,88.846,217.79,87.136,215.69,87.136z"/>
		<path fill="#B34F33" d="M198.71,118.336c-0.54,2.04-1.17,4.04-1.89,6h-19.93c0.99-1.94,1.87-3.95,2.62-6H198.71z"/>
		<path fill="#B34F33" d="M76.48,118.336c0.76,2.06,1.64,4.06,2.63,6H59.18c-0.72-1.96-1.35-3.96-1.89-6H76.48z"/>
		<path fill="#FFCBC2" d="M190.719,112.604c-1.361-0.232-2.276-1.523-2.044-2.884c0.33-1.938,0.57-3.917,0.712-5.883
			c0.1-1.377,1.298-2.406,2.675-2.313c1.377,0.1,2.412,1.298,2.313,2.675c-0.155,2.126-0.414,4.266-0.771,6.361
			C193.37,111.926,192.073,112.837,190.719,112.604z M191.828,96.528c-1.287,0-2.38-0.988-2.489-2.294
			c-1.198-14.484-7.526-28.129-17.817-38.42c-0.977-0.976-0.977-2.559,0-3.535c0.976-0.977,2.56-0.977,3.535,0
			c11.127,11.127,17.969,25.88,19.265,41.543C194.443,95.273,193.3,96.528,191.828,96.528z"/>
		<path fill="#AFAFAF" d="M144.67,236.336h-33.34c3.288-14.999,2.286-10.922,4.49-18.583h24.36
			C142.384,225.414,141.383,221.339,144.67,236.336z"/>
		<polygon fill="#4C4944" points="141.93,223.836 114.07,223.836 115.82,217.753 140.18,217.753 		"/>
		<path fill="#AFAFAF" d="M160.67,241.336v7H95.33v-7c0-2.761,2.239-5,5-5h55.34C158.431,236.336,160.67,238.575,160.67,241.336z"/>
		<path fill="#AFAFAF" d="M149.503,171.452v18.409c0,3.085-2.517,5.601-5.61,5.601h-31.786c-3.094,0-5.61-2.517-5.61-5.601v-18.409
			H149.503z"/>
		<path fill="#F0C020" d="M172.6,124.336c-1.9,13.88-9.69,22.85-16.02,28.15c-4.43,3.71-7.08,9.14-7.08,14.93v4.04h-43v-3.87
			c0-5.89-2.67-11.42-7.18-15.2c-6.34-5.32-14.09-14.28-15.94-28.05c-3.752-27.515,17.371-50.771,43.3-51.52
			C154.196,71.987,176.568,96.153,172.6,124.336z"/>
		<path fill="#F9E5AF" d="M158.513,135.042c-1.252-0.581-1.797-2.067-1.216-3.32c0.548-1.182,1.023-2.417,1.411-3.671
			c0.408-1.319,1.812-2.055,3.127-1.649c1.319,0.408,2.057,1.809,1.649,3.127c-0.454,1.466-1.01,2.912-1.651,4.296
			C161.252,135.079,159.766,135.623,158.513,135.042z M162.608,121.441c-0.012,0-0.023,0-0.035,0
			c-1.38-0.02-2.484-1.154-2.465-2.535c0.131-18.932-15.244-33.175-33.095-32.631c-1.363,0.024-2.532-1.043-2.574-2.424
			c-0.041-1.38,1.044-2.532,2.424-2.574c20.564-0.61,38.377,15.763,38.245,37.699C165.089,120.345,163.973,121.441,162.608,121.441z
			"/>
		<g>
			<path d="M41.25,182.886c1.38,0,2.5-1.12,2.5-2.49c0-1.38-1.12-2.5-2.5-2.5c-1.38,0-2.5,1.12-2.5,2.5
				C38.75,181.766,39.87,182.886,41.25,182.886z"/>
			<path d="M110.81,78.966c1.26-0.56,1.82-2.04,1.26-3.3c-0.55-1.22-2.07-1.81-3.3-1.26c-1.253,0.554-1.836,2.021-1.27,3.3
				C108.08,78.981,109.57,79.529,110.81,78.966z"/>
			<path d="M114.325,118.084c-7.54,7.54-7.54,19.809,0,27.349c7.54,7.539,19.808,7.54,27.349,0c7.54-7.54,7.54-19.809,0-27.349
				c-0.977-0.977-2.56-0.976-3.536,0c-0.977,0.977-0.977,2.56,0,3.536c5.59,5.591,5.59,14.688,0,20.278
				c-5.591,5.591-14.688,5.589-20.278,0c-5.59-5.591-5.59-14.688,0-20.278c0.976-0.976,0.976-2.559,0-3.536
				C116.884,117.108,115.302,117.107,114.325,118.084z"/>
			<path d="M128,132.42c1.381,0,2.5-1.119,2.5-2.5v-24.667c0-1.381-1.119-2.5-2.5-2.5s-2.5,1.119-2.5,2.5v24.667
				C125.5,131.301,126.619,132.42,128,132.42z"/>
			<path d="M215.69,84.636h-13.42c-1.93-9.84-5.75-19.06-11.36-27.42l9.49-9.49c2.449-2.448,2.476-6.453,0-8.93l-11.86-11.86
				c-2.387-2.386-6.364-2.544-8.93,0l-9.49,9.49c-1.48-0.99-3.01-1.94-4.55-2.83c-1.16-0.66-2.75-0.22-3.41,0.93
				c-0.699,1.194-0.269,2.733,0.92,3.41c2.02,1.16,4,2.43,5.88,3.76c0.97,0.7,2.37,0.58,3.22-0.26l10.97-10.96
				c0.508-0.508,1.325-0.525,1.85,0l11.86,11.86c0.545,0.545,0.499,1.37,0,1.85l-10.96,10.97c-0.86,0.87-0.98,2.22-0.27,3.22
				c6.17,8.65,10.35,18.74,12.08,29.17c0.21,1.21,1.24,2.09,2.47,2.09h15.51c0.71,0,1.31,0.6,1.31,1.31v16.78
				c0,0.71-0.6,1.31-1.31,1.31h-15.51c-1.23,0-2.27,0.88-2.47,2.09c-0.642,3.97-1.55,7.357-2.681,10.71h-14.221
				c3.042-7.124,4.592-14.675,4.592-22.5c0-31.573-25.539-57.4-57.4-57.4c-31.718,0-57.4,25.689-57.4,57.4
				c0,7.846,1.549,15.397,4.587,22.5H60.971c-0.458-1.362-0.89-2.743-1.261-4.14c-0.58-2.14-1.06-4.35-1.42-6.57
				c-0.2-1.21-1.24-2.09-2.47-2.09H40.31c-0.71,0-1.31-0.6-1.31-1.31v-16.78c0-0.71,0.6-1.31,1.31-1.31h15.51
				c1.23,0,2.26-0.88,2.47-2.09c1.73-10.43,5.91-20.52,12.08-29.17c0.71-1,0.59-2.35-0.27-3.22l-10.96-10.97
				c-0.523-0.523-0.512-1.338,0-1.85L71,30.476c0.522-0.522,1.337-0.513,1.85,0l10.97,10.96c0.84,0.84,2.25,0.96,3.22,0.26
				c8.65-6.16,18.74-10.34,29.17-12.07c1.21-0.2,2.09-1.24,2.09-2.47v-15.51c0-0.71,0.6-1.31,1.31-1.31h16.78
				c0.71,0,1.31,0.6,1.31,1.31v15.51c0,1.23,0.88,2.27,2.09,2.47c1.8,0.29,3.63,0.67,5.44,1.12c1.32,0.34,2.7-0.5,3.03-1.82
				c0.339-1.354-0.516-2.704-1.82-3.03c-1.24-0.3-2.49-0.58-3.74-0.83v-13.42c-0.01-3.47-2.84-6.3-6.31-6.31h-16.78
				c-3.47,0.01-6.3,2.84-6.31,6.31v13.42c-9.84,1.93-19.06,5.75-27.42,11.36l-9.49-9.49c-2.48-2.459-6.437-2.472-8.93,0L55.6,38.796
				c-2.468,2.469-2.456,6.473,0,8.93l9.49,9.49c-5.61,8.36-9.43,17.58-11.36,27.42H40.31c-3.47,0.01-6.31,2.84-6.31,6.31v16.78
				c0,3.47,2.84,6.3,6.31,6.31h13.42c0.33,1.67,0.71,3.33,1.15,4.95c0.249,0.957,0.528,1.907,0.82,2.85H46.25
				c-4.13,0-7.5,3.37-7.5,7.5v41.05c0,1.38,1.12,2.5,2.5,2.5c1.38,0,2.5-1.12,2.5-2.5v-41.05c0-1.38,1.12-2.5,2.5-2.5h34.999
				c2.037,11.132,7.966,20.347,16.461,27.46c4,3.36,6.29,8.2,6.29,13.29c0,0.147-0.003,6.39-0.003,22.276
				c0,4.467,3.638,8.101,8.11,8.101h31.786c4.472,0,8.11-3.634,8.11-8.101c0-15.672-0.003-21.238-0.003-22.446
				c0-4.98,2.25-9.72,6.19-13.01c8.539-7.15,14.47-16.381,16.536-27.57h35.024c1.38,0,2.5,1.12,2.5,2.5v83.42
				c0,1.37-1.12,2.49-2.5,2.5c-17.218,0,28.463,0-163.5,0c-1.38-0.01-2.5-1.13-2.5-2.5v-22.37c0-1.37-1.12-2.49-2.5-2.49
				c-1.38,0-2.5,1.12-2.5,2.49v22.37c0,4.13,3.37,7.49,7.5,7.5h66.393l-3.281,13.58h-9.033c-4.14,0-7.5,3.36-7.5,7.5v7
				c0,1.366,1.112,2.5,2.5,2.5h65.34c1.385,0,2.5-1.111,2.5-2.5v-7c0-4.14-3.37-7.5-7.5-7.5h-9.032l-3.281-13.58h66.393
				c4.13-0.01,7.5-3.37,7.5-7.5v-83.42c0-4.13-3.37-7.5-7.5-7.5h-9.451c0.799-2.569,1.416-4.976,1.971-7.8h13.42
				c3.47-0.01,6.3-2.84,6.31-6.31v-16.78C221.99,87.476,219.16,84.646,215.69,84.636z M147.003,180.958h-13.337
				c-1.381,0-2.5,1.119-2.5,2.5s1.119,2.5,2.5,2.5h13.337v3.904c0,1.71-1.396,3.101-3.11,3.101h-31.786
				c-1.715,0-3.11-1.391-3.11-3.101v-15.906h38.007V180.958z M175.409,121.618c2.132-27.526-19.518-51.868-48.809-51.302
				c-2.61,0.08-5.23,0.37-7.8,0.88c-1.35,0.27-2.23,1.59-1.96,2.94c0.26,1.33,1.6,2.23,2.94,1.97c2.29-0.46,4.64-0.72,6.97-0.79
				c25.028-1.067,47.247,21.399,43.37,48.67c-1.42,10.4-6.52,19.34-15.14,26.58c-5.07,4.24-7.98,10.38-7.98,16.85v1.536h-38v-1.366
				c0-6.58-2.94-12.82-8.08-17.12c-8.6-7.24-13.67-16.14-15.06-26.46c-2.103-15.082,3.757-30.501,16.82-40.26
				c1.11-0.83,1.33-2.4,0.51-3.5c-0.8-1.07-2.42-1.31-3.5-0.51c-12.446,9.302-20.365,24.564-19.098,41.89
				c-3.3-6.989-4.992-14.476-4.992-22.29c0-28.934,23.408-52.4,52.4-52.4c29.06,0,52.4,23.524,52.4,52.4
				C180.4,107.121,178.708,114.606,175.409,121.618z M117.787,220.256h20.427l3.281,13.58h-26.988L117.787,220.256z M155.67,238.836
				c1.38,0,2.5,1.12,2.5,2.5v4.5H97.83v-4.5c0-1.38,1.12-2.5,2.5-2.5C106.844,238.836,149.018,238.836,155.67,238.836z"/>
			<path d="M154.4,33.726c1.264,0.506,2.731-0.079,3.25-1.39c0.532-1.299-0.119-2.741-1.38-3.25c-1.26-0.51-2.75,0.14-3.25,1.39
				C152.5,31.756,153.12,33.206,154.4,33.726z"/>
		</g>
	</g>
</g>
</svg>
